# xmcd CD database file
#
# Track frame offsets:
#	150
#	5340
#	34151
#	50242
#	64467
#	75038
#	87927
#	118995
#	130531
#	151831
#	162475
#	187810
#	210856
#
# Disc length: 3017 seconds
#
# Revision: 0
# Processed by: cddbd v1.5.2PL0 Copyright (c) Steve Scherf et al.
# Submitted via: CDex 2.09
#
DISCID=9d0bc70d
DTITLE=PTASZYN KOMEDA - MSEO CD1
DYEAR=2018
DGENRE=Jazz
TTITLE0=TREBACZ JEST NIEWINNY
TTITLE1=LAMENT NAD EUROPA
TTITLE2=MISERERE
TTITLE3=LITANIA
TTITLE4=HAMEIN JEST WSZEDZIE
TTITLE5=MODLITWA I PYTANIE
TTITLE6=PO KATASTROFIE
TTITLE7=NIEPIOSENKA O MILOSCI
TTITLE8=TEMAT DLA JEDNEGO, A WARIACJE DLA DRUGIEGO SWIATA
TTITLE9=CZAROWNICA
TTITLE10=KOMEDA W CYRKU WAZYKA
TTITLE11=DON KICHOT
TTITLE12=WALC NA KONIEC SWIATA
EXTD=YEAR: 2018
EXTT0=
EXTT1=
EXTT2=
EXTT3=
EXTT4=
EXTT5=
EXTT6=
EXTT7=
EXTT8=
EXTT9=
EXTT10=
EXTT11=
EXTT12=
PLAYORDER=
